<?xml version="1.0" standalone="no"?><!DOCTYPE svg PUBLIC "-//W3C//DTD SVG 1.1//EN" "http://www.w3.org/Graphics/SVG/1.1/DTD/svg11.dtd"><svg t="1522168768715" class="icon" style="" viewBox="0 0 1024 1024" version="1.1" xmlns="http://www.w3.org/2000/svg" p-id="5482" xmlns:xlink="http://www.w3.org/1999/xlink" width="40" height="40"><defs><style type="text/css"></style></defs><path d="M961.691 678.358v-442.777c0-95.447-77.459-172.906-172.962-172.906h-553.513c-95.447 0-172.906 77.459-172.906 172.906v553.513c0 95.447 77.403 172.906 172.906 172.906h553.513c85.047 0 155.818-61.495 170.264-142.384-45.868-19.842-244.632-105.677-348.173-155.088-78.808 95.447-161.327 152.726-285.723 152.726s-207.42-76.616-197.471-170.377c6.577-61.552 48.791-162.17 232.152-144.913 96.627 9.050 140.866 27.094 219.674 53.12 20.405-37.381 37.325-78.528 50.197-122.316h-349.466v-34.627h172.906v-62.169h-210.905v-38.111h210.905v-89.713c0 0 1.912-14.053 17.425-14.053h86.452v103.766h224.845v38.111h-224.845v62.169h183.418c-16.864 68.633-42.44 131.703-74.481 186.79 53.288 19.281 295.784 93.424 295.784 93.424v0 0zM311.325 757.897c-131.422 0-152.22-82.968-145.25-117.651 6.914-34.514 44.969-79.539 118.044-79.539 83.979 0 159.19 21.473 249.466 65.43-63.406 82.574-141.315 131.759-222.26 131.759v0z" p-id="5483" fill="#00A1E9"></path></svg>
