<?xml version="1.0" standalone="no"?><!DOCTYPE svg PUBLIC "-//W3C//DTD SVG 1.1//EN" "http://www.w3.org/Graphics/SVG/1.1/DTD/svg11.dtd"><svg t="1522168841018" class="icon" style="" viewBox="0 0 1024 1024" version="1.1" xmlns="http://www.w3.org/2000/svg" p-id="7631" xmlns:xlink="http://www.w3.org/1999/xlink" width="40" height="40"><defs><style type="text/css"></style></defs><path d="M511.979 1017.064c-313.562 0-445.086-112.16-445.086-342.657 0-190.952 149.141-390.228 329.94-453.095h230.295c180.805 62.867 329.94 262.142 329.94 453.095-0.001 230.496-131.525 342.657-445.090 342.657zM635.327 638.306v-0.077c20.809-0.109 37.641-17.015 37.641-37.841 0-20.846-16.829-37.733-37.641-37.864v-0.090h-76.342c0.149-0.851-0.101-1.609-0.027-2.46l89.472-91.462c14.595-16.442 7.169-30.038-7.582-44.945-14.843-14.983-39.102-18.126-51.095-5.068l-76.934 82.011-83.101-83.103c-10.516-10.506-30.973-7.083-45.694 7.639-14.734 14.742-18.145 35.216-7.639 45.723l84.991 84.97c-1.59 2.033-2.62 4.292-3.236 6.697h-69.073v0.070c-0.064 0-0.132 0-0.194 0-20.92 0-37.881 16.944-37.881 37.881 0 20.898 16.961 37.878 37.881 37.878 0.063 0 0.13-0.038 0.194-0.038v0.077h75.712v37.731h-75.712v0.11c-0.064 0-0.132 0-0.194 0-20.92 0-37.881 16.944-37.881 37.879 0 20.9 16.961 37.881 37.881 37.881 0.063 0 0.13-0.038 0.194-0.038v0.038h75.712v38.139h0.785c-0.593 2.958-0.933 6.048-0.933 9.21 0 26.154 21.196 47.35 47.348 47.35 26.156 0 47.35-21.197 47.35-47.35 0-3.16-0.344-6.252-0.935-9.21h0.443v-38.139l76.492-0.038c20.809-0.131 37.641-17.017 37.641-37.844 0-20.843-16.832-37.731-37.641-37.86v-0.131h-76.492v-37.73h76.492zM691.905 70.070l-7.96 9.95c-0.177 0.185-0.298 0.406-0.474 0.591l-67.324 84.156h-227.277l-67.197-84.011c-0.499-0.482-0.823-1.071-1.285-1.59l-7.278-9.1 1.284-2.571c-0.619-2.332-1.442-4.606-1.442-7.121 0-12.059 7.584-22.249 18.2-26.393l0.898-1.796c0 0 93.101-18.625 170.457-18.939 80.958-0.332 170.459 18.939 170.459 18.939l0.918 1.813c10.55 4.181 18.069 14.354 18.069 26.374 0 2.48-0.815 4.683-1.405 6.954l1.356 2.74z" p-id="7632" fill="#f4ea2a"></path></svg>
